<svg xmlns="http://www.w3.org/2000/svg" viewBox="0 0 54.44 49.77"><defs><style>.cls-1{fill:#fff;}</style></defs><title>Recurso 1Isotipo</title><g id="Capa_2" data-name="Capa 2"><g id="Capa_1-2" data-name="Capa 1"><path class="cls-1" d="M54.19,46.46,30.62,1.87C30,.53,29,0,27.24,0h0a3.72,3.72,0,0,0-3.31,1.73L.25,46.46c-.82,1.55.5,3.31,2.49,3.31H4.56a10.19,10.19,0,0,0,3.68-1.61c1.88-1.33,2.78-3.77,5-4.68a11.41,11.41,0,0,1,1.5-.39,2.66,2.66,0,0,0,1.93-1.56c.3-.69.32-1.19.9-1.73a12.16,12.16,0,0,1,2.3-1.44,2.47,2.47,0,0,0,.84-.83l3.2-5.21a2.4,2.4,0,0,1,1-.93l3-1.51V21.6c-.15-.23-.3-.4-.57-.39a1.56,1.56,0,0,0-.92.42,6.23,6.23,0,0,1-.8.66,4.72,4.72,0,0,1-2.79.16l-.54,0c-.19,0-.37,0-.56.05a2.17,2.17,0,0,1-.51,0,2.49,2.49,0,0,1-.47-.12.67.67,0,0,1-.5-.4c-.09-.24.24-.26.38-.33.37-.19.39-.61.52-1a2.3,2.3,0,0,1,1-1.42c.46-.21,1-.1,1.48-.36.64-.37.67-1.27,1-1.93a2.1,2.1,0,0,1,1.5-1.12,2.31,2.31,0,0,1,1.8.47,1.15,1.15,0,0,1,0-.55.35.35,0,0,1,.47-.06c.23.18.14.73.14,1v13l.75-.35a2.43,2.43,0,0,1,3.28,1.26l.92,2.2c.58,1.39,1.11,2.79,1.71,4.17a15.19,15.19,0,0,0,1.8,3.74c1,1.22,3.06,1.4,3.84,2.74.42.74.49,1.65,1.1,2.29s1.34.48,2,.61c1.5.3,1.68,1.52,2.45,2.65a2.08,2.08,0,0,0,.87.8H51.7C53.69,49.77,55,48,54.19,46.46Z"/><path class="cls-1" d="M33.15,35.28a.79.79,0,0,0-1.08-.09,6.76,6.76,0,0,0-1.33,1.44c-.39.49-.12.77-.21,1.26-.18.87-1.37.73-1.94,1.14-.8.57.12,1.31.13,1.91s-1.13.92-1,1.63c.13,1,1.35.78,2,.63A22.12,22.12,0,0,1,33,42.5c.82-.06,2-.07,2.47-.88.7-1.21-1.05-2.94-1.46-4C33.69,36.87,33.71,35.86,33.15,35.28Z"/></g></g></svg>